<svg id="icon-kinoba" viewBox="0 0 292 292" fill="none" xmlns="http://www.w3.org/2000/svg">
<path d="M34.0656 145.69C27.7271 141.444 22.0533 136.28 17.2292 130.369L0 145.69L17.2292 161.012C22.0396 155.088 27.7155 149.922 34.0656 145.69V145.69Z" fill="currentColor"/>
<path d="M22.5058 172.208C19.3871 177.43 17.1141 183.112 15.7712 189.044H47.0588L47.6481 186.547C49.4795 178.172 52.9612 170.245 57.8899 163.23C62.8186 156.215 69.0955 150.253 76.3541 145.691C68.048 140.257 60.9896 133.122 55.6454 124.758C51.9373 118.598 49.2198 111.894 47.592 104.891L47.0027 102.365H15.7712C17.1091 108.299 19.3824 113.982 22.5058 119.202C28.5669 129.116 39.5853 137.965 55.5612 145.747C39.5666 153.492 28.5482 162.312 22.5058 172.208Z" fill="currentColor"/>
<path d="M291.72 145.691C275.725 137.89 264.698 129.042 258.637 119.146C255.538 113.917 253.275 108.237 251.93 102.31H196.482C197.798 108.246 200.062 113.931 203.189 119.146C209.08 127.964 217.012 135.232 226.311 140.332H137.723C128.43 135.224 120.501 127.958 114.601 119.146C111.503 113.917 109.24 108.237 107.895 102.31H58.0874C59.4452 108.233 61.7072 113.911 64.7939 119.146C70.855 129.061 81.8828 137.909 97.8773 145.691C81.8828 153.473 70.855 162.312 64.7939 172.209C61.712 177.445 59.4503 183.123 58.0874 189.045H107.895C109.245 183.119 111.508 177.44 114.601 172.209C120.505 163.405 128.447 156.156 137.751 151.079H226.311C217.014 156.157 209.082 163.406 203.189 172.209C200.067 177.426 197.803 183.11 196.482 189.045H251.902C253.265 183.123 255.527 177.445 258.608 172.209C264.67 162.294 275.697 153.455 291.692 145.691H291.72Z" fill="currentColor"/>
<path d="M163.089 280.887C173.892 278.642 178.045 275.275 179.616 273.648C180.346 272.806 182.591 269.495 183.208 259.14L116.34 199.904H60.8079L154.222 282.767L163.089 280.887Z" fill="currentColor"/>
<path d="M179.616 17.7059C178.045 15.9662 174.004 12.7392 163.088 10.5224L154.362 8.69849L60.9197 91.6176H116.367L183.18 32.3536C182.59 21.9431 180.346 18.4636 179.616 17.7059Z" fill="currentColor"/>
<path d="M194.544 91.6179H249.963C249.594 87.888 249.416 84.1417 249.43 80.3937V38.1063C249.43 24.5998 247.27 15.4146 242.948 10.5508C238.599 5.66825 231.163 2.13261 220.5 0H165.445C176.014 2.17002 183.497 5.68696 187.893 10.5508C192.289 15.4146 194.441 24.5998 194.347 38.1063V80.3937C194.123 84.3502 194.319 88.0542 194.544 91.6179Z" fill="currentColor"/>
<path d="M165.445 291.409H220.893C231.471 289.193 238.964 285.657 243.341 280.802C247.719 275.948 249.823 266.772 249.823 253.303V210.96C249.823 207.059 250.019 203.299 250.356 199.735H194.544C194.166 203.465 193.979 207.211 193.982 210.96V253.219C193.982 266.688 191.822 275.854 187.5 280.718C183.207 285.657 175.855 289.193 165.445 291.409Z" fill="currentColor"/>
</svg>
